PathFileType	4	(X/Y/Z)	C:/Users/beibeiliu/ov580/test_trc/capture2\sequence.22_training_dense_right.trc
DataRate	CameraRate	NumFrames	NumMarkers	Units	OrigDataRate	OrigDataStartFrame	OrigNumFrames
120	120	10	19	mm	120	143	380
Frame#	Time	ThumbCMC			ThumbMCP			ThumbIP			ThumbTip			IndexMCP			IndexPIP			IndexTip			MiddleMCP			MiddlePIP			MiddleTip			RingMCP			RingPIP			RingTip			PinkyMCP			PinkyPIP			PinkyTip			BackHand1			BackHand2			BackHand3	
		X0	Y0	Z0	X1	Y1	Z1	X2	Y2	Z2	X3	Y3	Z3	X4	Y4	Z4	X5	Y5	Z5	X6	Y6	Z6	X7	Y7	Z7	X8	Y8	Z8	X9	Y9	Z9	X10	Y10	Z10	X11	Y11	Z11	X12	Y12	Z12	X13	Y13	Z13	X14	Y14	Z14	X15	Y15	Z15	X16	Y16	Z16	X17	Y17	Z17	X18	Y18	Z18	
142	1.18333	89.4938	4.22674	65.7841	75.4582	9.30587	41.4433	64.9335	26.6952	21.9891	64.489	39.3526	5.54901	88.9815	55.7054	16.9341	83.9223	38.2609	-7.08793	90.3418	7.63577	4.95985	108.727	52.544	7.3888	105.332	27.8154	-10.4379	108.17	1.16001	19.6013	125.033	46.8388	1.64681	117.911	22.6105	-8.80283	118.713	1.63221	23.1293	152.461	55.5421	18.0526	150.001	67.826	0.44957	154.931	84.4443	-21.6099	141.973	37.6161	61.8828	150.99	22.4456	80.2989	113.376	31.4389	78.8546	
143	1.19167	92.252	5.40306	62.9891	77.3987	7.4801	38.9779	64.0821	24.1382	17.3043	62.5106	40.5771	-0.692662	86.7857	54.1963	15.7059	82.8264	33.9951	-11.0852	93.9284	6.63092	2.98179	108.108	52.4427	5.89829	104.947	26.0442	-13.703	106.945	0.734459	16.4879	125.6	47.9365	3.51776	120.706	16.004	-9.69716	118.942	1.64141	18.6265	152.08	54.4385	16.3214	151.304	66.7206	-4.14011	147.642	84.5336	-24.1913	139.219	44.7446	57.2865	147.361	19.5587	81.1362	113.55	31.0662	73.3106	
144	1.2	92.8023	1.05795	63.4777	76.854	5.8745	34.8545	66.573	20.4359	14.9311	60.6802	33.6632	-3.78518	84.4221	53.2318	8.48109	85.9212	32.1196	-15.367	90.1629	4.37749	-1.85709	103.969	51.2395	4.41326	103.43	23.4625	-15.1476	107.004	0.0923987	11.3793	123.603	47.1964	-2.79948	121.579	20.5442	-13.953	120.979	1.64291	18.1796	151.395	57.5257	11.7663	147.225	70.7925	-10.3857	146.66	82.2185	-26.1049	138.392	44.7635	52.3307	145.877	22.9636	80.0202	112.022	35.1429	71.8572	
145	1.20833	92.2597	2.32484	59.5633	78.4619	7.02323	30.7903	64.5269	16.168	10.7478	60.217	30.6482	-8.42043	85.5107	50.8225	3.63557	83.719	31.8391	-18.9515	91.6223	1.62437	-3.78232	104.068	51.2539	-0.354132	102.582	22.9117	-19.7183	109.296	-0.857338	8.80862	121.49	47.4645	-5.33176	119.049	17.0122	-15.9347	121.664	2.13376	15.1559	146.371	57.9801	9.08802	144.934	68.739	-11.2284	148.504	83.5044	-31.7826	140.556	45.4392	51.743	144.865	27.2557	75.6572	112.752	35.4462	68.9181	
146	1.21667	89.9574	5.05651	55.5316	79.1367	3.90321	30.6232	64.8015	16.0624	7.18565	61.3886	25.2976	-11.352	79.1471	48.1832	-1.30321	79.9193	29.0822	-21.5389	94.9774	-0.180241	-3.47091	101.473	48.0802	-4.81393	102.883	18.8659	-21.6097	109.029	-1.40187	11.3099	121.098	45.8682	-7.39134	119.075	15.4825	-17.2441	120.241	1.53454	12.1768	143.379	61.7314	2.35179	140.03	70.8741	-17.6452	137.484	84.0876	-37.5898	132.27	50.4786	47.6677	142.931	30.7782	70.4274	109.211	33.8947	66.0232	
147	1.225	87.3675	2.17382	54.3573	77.1923	0.636481	28.2755	64.6598	10.9183	6.01723	60.851	22.5345	-14.1723	80.1963	44.9671	-2.06019	82.1152	23.5391	-24.8488	94.0403	-2.75421	-4.30542	100.397	45.6587	-11.055	101.027	13.4316	-22.7488	104.722	-2.66966	10.389	115.994	44.2817	-10.6061	118.304	15.5977	-20.4701	119.27	1.11431	11.0454	136.523	59.3142	3.0426	136.816	69.7092	-18.5897	136.173	85.0027	-37.7301	129.221	49.6273	46.473	136.931	33.8334	67.6135	106.961	33.9598	63.4164	
148	1.23333	88.1785	-0.295958	53.2756	73.8788	-2.74721	25.2921	59.8694	6.90832	2.38696	55.6837	15.63	-16.6901	72.4674	40.1035	-6.16843	80.7603	16.5601	-25.9916	91.9576	-6.85185	-4.65364	93.1722	41.9696	-12.4303	100.223	14.9294	-26.1343	107.634	-2.3287	9.0748	109.919	42.3103	-14.2617	117.175	14.253	-22.3453	116.492	1.84881	9.75355	130.904	63.8131	-1.69432	131.394	72.6121	-23.4885	126.051	84.3444	-44.8613	124.518	50.8511	41.7394	133.075	35.3007	68.2468	102.305	34.874	62.335	
149	1.24167	85.3497	-5.61987	52.632	76.3743	-8.12638	27.0009	58.0327	-0.669989	1.2467	56.0829	11.1961	-18.7773	70.2926	36.4837	-6.02925	77.1215	16.5846	-27.2805	94.6328	-5.49575	-9.23154	87.7058	39.7318	-11.3024	96.6163	11.6693	-25.7324	107.636	-3.27943	8.34266	104.648	40.9487	-14.1387	113.213	14.8319	-22.6075	116.87	2.71268	12.5727	123.135	63.4199	-4.38288	121.95	71.9235	-24.6706	117.613	83.199	-46.6409	116.924	50.9812	42.7002	129.689	38.3637	66.889	93.1952	31.486	59.5001	
150	1.25	85.8844	-7.37177	52.7479	73.9637	-9.35859	23.7092	60.0504	-5.29135	2.49658	50.1742	4.52165	-19.2469	63.5827	29.7984	-6.21713	71.2661	9.89001	-29.0618	91.2244	-10.8811	-4.42337	85.2523	35.6758	-14.9725	98.1662	7.37088	-25.007	106.985	-3.27169	9.70035	102.171	40.8692	-14.4966	112.212	10.3044	-21.7899	114.569	1.67967	8.27175	116.273	60.813	-3.49052	115.532	68.6822	-22.847	111.405	81.542	-46.6969	109.347	51.8661	40.311	121.939	39.3552	64.9579	90.1581	30.6058	57.4671	
151	1.25833	83.1907	-8.0212	50.3752	73.2449	-14.6963	23.9275	59.7228	-5.43613	0.748193	52.1461	1.52289	-20.0969	60.7973	25.2226	-6.95011	73.7929	8.92522	-29.5023	93.7534	-10.0403	-4.46292	83.0272	34.5711	-13.7639	95.8573	6.9004	-26.9503	104.65	-6.07333	6.14493	101.327	39.3467	-20.6696	113.099	10.5505	-22.805	116.507	4.09404	7.32949	115.454	63.4063	-5.36499	109.52	68.589	-27.2701	105.482	78.7098	-50.3042	105.536	50.4401	39.7094	123.347	40.4678	66.5189	87.4716	28.244	56.6786	
